<svg viewBox="0 0 512 512" xmlns="http://www.w3.org/2000/svg">
  <g id="SVGRepo_iconCarrier">
    <title>Taza de Café con Vapor</title>
    
    <g transform="matrix(0.8, 0, 0, 0.8, 51.2, 70)">
      <path d="M432,64H96A16,16,0,0,0,80,80V272a96.11,96.11,0,0,0,96,96H288a96.11,96.11,0,0,0,96-96V192h18a62.07,62.07,0,0,0,62-62V96A32,32,0,0,0,432,64Zm0,66a30,30,0,0,1-30,30H384V96h48Z" fill="#D2B48C"></path>
      <path d="M400,400H64a16,16,0,0,0,0,32H400a16,16,0,0,0,0-32Z" fill="#D2B48C"></path>
    </g>
    
    <g transform="rotate(-45, 256, 120)" fill="none" stroke="#D2B48C" stroke-width="16" stroke-linecap="round">
      <line x1="230" y1="120" x2="230" y2="60"/>
      <line x1="282" y1="120" x2="282" y2="60"/>
    </g>
  </g>
</svg>